<svg xmlns="http://www.w3.org/2000/svg" xmlns:xlink="http://www.w3.org/1999/xlink" width="128px" height="128px" viewBox="0 0 128 128" version="1.1">
  <title>
    icon
  </title>
  <desc>
    Created with Sketch.
  </desc>
  <defs>
    <path d="M2.85643531 43.1593464C4.76182307 40.7237235 7.40077721 38.7847463 10.2163674 37.7516204 26.6334945 31.727676 42.0206929 20.421899 53.1306166 6.22028351 57.1881226 1.03364669 64.068051-1.38747469 68.4973667 0.812557545 70.5773548 1.84568343 71.8357261 3.78466067 72.0069113 6.22028351 73.0050574 20.421899 80.3423613 31.727676 92.4703435 37.7516204 96.8996593 39.9516527 97.2010707 45.9397311 93.1435647 51.1263679 91.2381769 53.5619907 88.5992228 55.500968 85.7836326 56.5340939 69.3665055 62.5580382 54.4543243 67.578101 43.3444006 81.7797165 39.2868946 86.9663533 32.4069663 89.3874747 27.9776505 87.1874425 25.8976625 86.1543166 24.6392912 84.2153393 24.4681059 81.7797165 23.4699598 67.578101 15.6576387 62.5580382 3.52965647 56.5340939 -0.899659288 54.3340616-1.20107066 48.3459832 2.85643531 43.1593464Z" id="path-1"/>
    <linearGradient x1="0%" y1="100%" x2="93.3466199%" y2="5.6394435%" id="linearGradient-3">
      <stop stop-color="#9866FE" offset="0%"/>
      <stop stop-color="#009FD2" offset="71.0259885%"/>
      <stop stop-color="#02B9F3" offset="100%"/>
    </linearGradient>
    <path d="M13.9370131 13.499483L85.3333742 0.421566327C94.5685614-1.27007462 103.426506 4.84517783 105.118147 14.080365 105.303242 15.0908572 105.396361 16.1160473 105.396361 17.1433519L105.396361 70.7004033C105.396361 78.9078601 99.5324852 85.9434046 91.459348 87.4221888L20.0629869 100.500106C10.8277998 102.191746 1.96985542 96.076494 0.27821447 86.8413069 0.093119145 85.8308147-1.40850462e-14 84.8056246-1.42108547e-14 83.77832L-3.55271368e-15 30.2212686C-4.55783725e-15 22.0138118 5.86387594 14.9782673 13.9370131 13.499483Z" id="path-4"/>
    <linearGradient x1="88.1623825%" y1="56.5816627%" x2="10.5054756%" y2="80.6082694%" id="linearGradient-6">
      <stop stop-color="#7A71F6" offset="0%"/>
      <stop stop-color="#00C2FF" offset="100%"/>
    </linearGradient>
    <linearGradient x1="15.5011506%" y1="77.2860917%" x2="84.0055024%" y2="-8.9732453%" id="linearGradient-7">
      <stop stop-color="#AC11FE" offset="0%"/>
      <stop stop-color="#00C2FF" offset="100%"/>
    </linearGradient>
  </defs>
  <g id="Page-1" stroke="none" stroke-width="1" fill="none" fill-rule="evenodd">
    <g id="Icons" transform="translate(-606.000000, -268.000000)">
      <g id="Stylist-Icon" transform="translate(606.000000, 268.000000)">
        <rect id="Mask" fill-opacity="0" fill="#F9F9F9" x="0" y="0" width="128" height="128"/>
        <g id="Group-4" transform="translate(3.000000, 99.000000)" fill="#24282D">
          <path d="M112.705168 5.92222222L109.811415 15.21C109.666208 15.6625949 109.318754 15.8888889 108.769042 15.8888889L106.202004 15.8888889C105.953078 15.8888889 105.730085 15.8118526 105.533018 15.6577778 105.335951 15.5037029 105.232234 15.315927 105.221862 15.0944444L105.221862 9.25888889C105.252978 8.37295853 105.268535 7.90592617 105.268535 7.85777778L104.972937 7.85777778C104.858846 8.41629909 104.749942 8.87851669 104.646223 9.24444444L102.841517 15.1955556C102.69631 15.6577801 102.348856 15.8888889 101.799144 15.8888889L99.1854321 15.8888889C98.926134 15.8888889 98.7005481 15.8118526 98.5086675 15.6577778 98.3167869 15.5037029 98.2260339 15.3207418 98.2364058 15.1088889L98.0963855 5.92222222 100.990138 5.92222222 100.756771 12.4511111C100.746399 12.6244453 100.730841 12.8868501 100.710097 13.2383333 100.689354 13.5898166 100.673796 13.8474066 100.663424 14.0111111L100.959022 14.0111111C101.093857 13.3851821 101.239062 12.8266691 101.394641 12.3355556L103.152673 6.68777778C103.29788 6.17740486 103.65052 5.92222222 104.210604 5.92222222L106.404255 5.92222222C106.663553 5.92222222 106.878768 6.00407326 107.049904 6.16777778 107.221041 6.3314823 107.311794 6.53851727 107.322166 6.78888889L107.446628 12.4655556C107.467372 12.9855582 107.467372 13.5007382 107.446628 14.0111111L107.742227 14.0111111C107.835574 13.4333304 107.954849 12.8892618 108.100056 12.3788889L109.811415 5.92222222 112.705168 5.92222222ZM112.487358 15.8888889L113.996466 5.92222222C114.992171 5.82592544 116.376802 5.77777778 118.150401 5.77777778 119.716561 5.77777778 120.784853 6.02814564 121.355309 6.52888889 121.925765 7.02963213 122.117643 7.92517873 121.930948 9.21555556 121.744253 10.486673 121.355312 11.3412941 120.764112 11.7794444 120.172913 12.2175948 119.182409 12.4366667 117.792571 12.4366667 117.190999 12.4366667 116.568693 12.3981485 115.925634 12.3211111L115.396669 15.8888889 112.487358 15.8888889ZM116.221232 10.4577778L117.559204 10.4577778C118.0778 10.4577778 118.433033 10.371112 118.624914 10.1977778 118.816794 10.0244436 118.959406 9.62963271 119.052754 9.01333333 119.125357 8.52221977 119.094242 8.19000087 118.959407 8.01666667 118.824572 7.84333247 118.528976 7.75666667 118.072612 7.75666667L116.625735 7.77111111 116.221232 10.4577778Z" id="WP-Copy-3"/>
          <path d="M8.88869266 13.3086031L5.20664521 11.6801243C3.69162853 11.0062676 2.68003447 10.2013953 2.17183267 9.2654832 1.66363087 8.32957113 1.49583091 7.18777553 1.66842775 5.84006214 1.93691172 3.78105558 2.69440869 2.37720852 3.94094141 1.62847887 5.18747412 0.879749207 7.14354226 0.505389993 9.80920452 0.505389993 12.4365119 0.505389993 14.7090029 0.804877364 16.6267455 1.40386109L16.1377236 4.82928215C12.6857868 4.77312743 10.4900044 4.74505049 9.55031056 4.74505049 8.64897152 4.74505049 8.02571452 4.81992233 7.68052084 4.96966826 7.33532717 5.11941419 7.11479007 5.47505545 7.01890294 6.03660269 6.94219324 6.448404 6.99493037 6.76192985 7.17711592 6.97718962 7.35930147 7.1924494 7.77640423 7.4311034 8.42843673 7.69315878L11.8515902 9.15317431C13.4049617 9.80831277 14.4261444 10.5804286 14.9151687 11.4695451 15.4041931 12.3586616 15.5624045 13.5519316 15.3898077 15.0493909 15.1213237 17.2207069 14.4117696 18.6900668 13.261124 19.4575147 12.1104784 20.2249626 10.1352331 20.6086808 7.33532889 20.6086808 4.8614409 20.6086808 2.41635572 20.3185524 0 19.7382869L0.517787922 16.0320937C4.39162804 16.1256849 6.57782185 16.1724798 7.07643493 16.1724798 8.15037081 16.1724798 8.89348493 16.0835695 9.3057996 15.9057462 9.71811426 15.7279229 9.97221135 15.3676021 10.0680985 14.8247731 10.1448082 14.4129718 10.1016596 14.1134844 9.9386515 13.926302 9.77564338 13.7391196 9.4256606 13.533222 8.88869266 13.3086031ZM25.1990122 9.49010098L24.3360323 15.4986264C24.2593226 15.9478642 24.2880883 16.2426721 24.4223303 16.3830589 24.5565723 16.5234457 24.8729951 16.5936381 25.3716082 16.5936381L27.1550999 16.5936381 27.4139939 19.9909819C26.3017031 20.4027833 24.834652 20.6086808 23.0127965 20.6086808 21.593667 20.6086808 20.5149529 20.2436806 19.776622 19.5136692 19.0382911 18.7836577 18.7650169 17.8009648 18.9567911 16.5655609L20.021133 9.49010098 17.5184914 9.49010098 17.9212153 6.4296838 20.5101549 6.28929769 21.0854748 2.52694996 26.234588 2.52694996 25.6880341 6.28929769 29.3413156 6.28929769 28.8810596 9.49010098 25.1990122 9.49010098ZM40.7901818 6.28929769L46.370785 6.28929769C46.0255913 8.49805018 45.36398 10.8892697 44.3859313 13.4630279 43.4078826 16.0367861 42.506557 18.0162104 41.6819277 19.4013603 40.2627982 21.7224222 38.6758899 23.4070387 36.9211554 24.4552602 35.1664209 25.5034817 33.1288499 26.0182256 30.8083814 25.9995074L30.3768914 23.1075536C30.4536011 23.0888353 30.6741382 23.0233225 31.0385093 22.911013 31.4028804 22.7987036 31.6330061 22.7285112 31.7288932 22.7004338 31.8247803 22.6723565 32.021346 22.6068436 32.3185961 22.5038933 32.6158462 22.400943 32.8267948 22.3213916 32.951448 22.2652369 33.0761013 22.2090822 33.2678727 22.1248514 33.5267679 22.0125419 33.7856632 21.9002325 33.9870232 21.7879247 34.1308539 21.6756152 34.2746845 21.5633058 34.4520731 21.4369596 34.6630248 21.2965728 34.8739765 21.1561859 35.0657478 20.9970833 35.2383447 20.81926 35.4109415 20.6414367 35.5835358 20.4495776 35.7561326 20.2436769L33.7425129 20.2436769C33.2822547 20.2436769 32.8891233 20.1079717 32.5631071 19.8365572 32.2370908 19.5651427 32.0357309 19.214181 31.9590212 18.7836614L29.9166355 6.28929769 35.6123026 6.28929769 36.3602185 16.5936381C36.3602185 16.89313 36.5136356 17.0428736 36.8204744 17.0428736L37.7409863 17.0428736C39.1025836 14.1602645 40.1189719 10.575775 40.7901818 6.28929769ZM54.6553918 0.589621658L52.4691761 15.4986264C52.3924664 15.929146 52.4356149 16.2192744 52.5986231 16.3690203 52.7616312 16.5187663 53.1212025 16.5936381 53.6773479 16.5936381L54.8855197 16.5936381 55.1731797 20.0190592C54.3869052 20.4121422 53.1308026 20.6086808 51.4048342 20.6086808 49.9281724 20.6086808 48.8063098 20.2530396 48.0392128 19.5417464 47.2721157 18.8304532 46.9652815 17.8571193 47.1187009 16.6217153L49.4487465 0.589621658 54.6553918 0.589621658ZM60.9839108 0L63.0550625 0C64.1673532 0 64.6659588 0.53346188 64.5508943 1.60040164L64.3495323 3.06041718C64.2152903 3.99632925 63.6495647 4.46427827 62.6523385 4.46427827L60.5236549 4.46427827C59.4305416 4.46427827 58.9511131 3.93081639 59.0853551 2.86387663L59.2867171 1.40386109C59.3634268 0.467949018 59.9291524 0 60.9839108 0ZM61.8181247 20.2436769L56.6114795 20.2436769 58.5963332 6.28929769 63.8029784 6.28929769 61.8181247 20.2436769ZM72.0300531 15.3020859L68.8370276 14.2351515C66.4782042 13.4489853 65.4618158 11.9141125 65.7878321 9.63048709 65.9604289 8.33892842 66.5453316 7.39367141 67.5425578 6.79468768 68.539784 6.19570395 70.1794293 5.89621658 72.4615431 5.89621658 75.2230925 5.93365307 77.5339377 6.13955063 79.394148 6.51391546L78.9338921 9.57433264C76.4408267 9.53689616 74.5998214 9.5181782 73.4108209 9.5181782 72.3177076 9.5181782 71.6081535 9.54625514 71.2821372 9.60240986 70.956121 9.65856459 70.7739382 9.79894929 70.7355833 10.0235682 70.7164059 10.2481871 70.8074973 10.4260077 71.0088603 10.5570354 71.2102233 10.6880631 71.6081489 10.8471658 72.2026491 11.0343482L75.5107386 12.0732054C77.869562 12.821935 78.9147161 14.263218 78.6462321 16.3970975 78.4352804 18.063021 77.7736692 19.1720602 76.6613784 19.7242483 75.5490877 20.2764365 73.8327338 20.5525264 71.5122652 20.5525264 69.2493289 20.5525264 66.9672494 20.3653468 64.6659582 19.9909819L65.0974482 16.9305648C65.3275773 16.9305648 66.0179543 16.9352442 67.1685999 16.9446034 68.3192454 16.9539625 69.1918053 16.958642 69.7863055 16.958642 71.339677 16.958642 72.3608596 16.9118471 72.849884 16.8182559 73.3389084 16.7246647 73.602594 16.546844 73.6409489 16.2847887 73.6601263 16.078888 73.5738292 15.9197853 73.3820549 15.8074759 73.1902807 15.6951664 72.7396179 15.5267048 72.0300531 15.3020859ZM88.4842026 9.49010098L87.6212228 15.4986264C87.5445131 15.9478642 87.5732788 16.2426721 87.7075208 16.3830589 87.8417628 16.5234457 88.1581855 16.5936381 88.6567986 16.5936381L90.4402904 16.5936381 90.6991843 19.9909819C89.5868936 20.4027833 88.1198425 20.6086808 86.297987 20.6086808 84.8788574 20.6086808 83.8001434 20.2436806 83.0618125 19.5136692 82.3234816 18.7836577 82.0502073 17.8009648 82.2419816 16.5655609L83.3063234 9.49010098 80.8036818 9.49010098 81.2064057 6.4296838 83.7953454 6.28929769 84.3706653 2.52694996 89.5197785 2.52694996 88.9732246 6.28929769 92.626506 6.28929769 92.1662501 9.49010098 88.4842026 9.49010098Z" id="StylistWP-Copy-10"/>
        </g>
        <g id="BG-shape-Copy" transform="translate(30.000000, 2.000000)">
          <mask id="mask-2" fill="white">
            <use xlink:href="#path-1"/>
          </mask>
          <use id="Mask" stroke="#5F6AA9" fill="#00B3E6" xlink:href="#path-1"/>
          <g mask="url(#mask-2)">
            <g transform="translate(-2.000000, -9.000000)">
              <mask id="mask-5" fill="white">
                <use xlink:href="#path-4"/>
              </mask>
              <use id="Mask" stroke="none" fill="url(#linearGradient-3)" fill-rule="evenodd" xlink:href="#path-4"/>
              <path d="M-91.668899-217.108245C-38.3300922-303.387429 52.7853161-265.357113 127.762529-217.108245 202.739743-168.859377 323.081424-155.183916 435.897145-216.368355 548.712867-277.552794 625.279725-137.69803 595.986188-60.6327128 566.692651 16.4326042 481.513036 84.604369 226.852277 84.604369 -27.8084822 84.604369-145.007706-130.829061-91.668899-217.108245Z" id="Path-2" stroke="none" fill="url(#linearGradient-6)" fill-rule="evenodd" opacity="0.245432513" mask="url(#mask-5)"/>
              <path d="M582.080313 126.103133C542.682593 255.296683 384.330522 198.897588 315.504214 168.118452 246.677907 137.339316 243.75592 213.655786 123.168694 255.296683 2.58146793 296.937579-154.383833 242.304196-90.6908215 168.118452 -26.9978097 93.9327084 95.158857 5.94361384 266.850469-40.6428518 438.542081-87.2293174 621.478033-3.09041754 582.080313 126.103133Z" id="Path-2-Copy" stroke="none" fill="url(#linearGradient-7)" fill-rule="evenodd" opacity="0.245432513" mask="url(#mask-5)"/>
            </g>
          </g>
        </g>
      </g>
    </g>
  </g>
</svg>
